<mxfile host="Electron" modified="2023-10-29T10:45:36.628Z" agent="Mozilla/5.0 (Windows NT 10.0; Win64; x64) AppleWebKit/537.36 (KHTML, like Gecko) draw.io/22.0.3 Chrome/114.0.5735.289 Electron/25.8.4 Safari/537.36" etag="XEfGDqbpo3ycs01_UnrS" version="22.0.3" type="device">
  <diagram name="Barocco" id="lPGyaX2sWXyDYNv4aqh5">
    <mxGraphModel dx="1495" dy="391" grid="1" gridSize="10" guides="1" tooltips="1" connect="1" arrows="1" fold="1" page="1" pageScale="1" pageWidth="827" pageHeight="1169" math="0" shadow="0">
      <root>
        <mxCell id="0" />
        <mxCell id="1" parent="0" />
        <mxCell id="RbbH7CZPH8PqWuIOMRYE-7" style="edgeStyle=orthogonalEdgeStyle;rounded=0;orthogonalLoop=1;jettySize=auto;html=1;exitX=0.5;exitY=1;exitDx=0;exitDy=0;entryX=0.5;entryY=0;entryDx=0;entryDy=0;" edge="1" parent="1" source="RbbH7CZPH8PqWuIOMRYE-1" target="RbbH7CZPH8PqWuIOMRYE-5">
          <mxGeometry relative="1" as="geometry" />
        </mxCell>
        <mxCell id="RbbH7CZPH8PqWuIOMRYE-1" value="Barocco&lt;br&gt;=&lt;br&gt;Cattivo Gusto, Disordinato" style="rounded=1;whiteSpace=wrap;html=1;" vertex="1" parent="1">
          <mxGeometry x="230" y="90" width="150" height="70" as="geometry" />
        </mxCell>
        <mxCell id="RbbH7CZPH8PqWuIOMRYE-4" value="Interesse nella letteratura dalla prima metà del 600" style="rounded=1;whiteSpace=wrap;html=1;" vertex="1" parent="1">
          <mxGeometry x="230" y="330" width="150" height="80" as="geometry" />
        </mxCell>
        <mxCell id="RbbH7CZPH8PqWuIOMRYE-5" value="Allontanamento dalla &quot;perfezione classica&quot; e ricerca del bello universale" style="rounded=1;whiteSpace=wrap;html=1;" vertex="1" parent="1">
          <mxGeometry x="230" y="200" width="150" height="80" as="geometry" />
        </mxCell>
        <mxCell id="RbbH7CZPH8PqWuIOMRYE-6" value="" style="endArrow=classic;html=1;rounded=0;exitX=0.5;exitY=1;exitDx=0;exitDy=0;" edge="1" parent="1" source="RbbH7CZPH8PqWuIOMRYE-5" target="RbbH7CZPH8PqWuIOMRYE-4">
          <mxGeometry width="50" height="50" relative="1" as="geometry">
            <mxPoint x="340" y="310" as="sourcePoint" />
            <mxPoint x="390" y="260" as="targetPoint" />
          </mxGeometry>
        </mxCell>
        <mxCell id="RbbH7CZPH8PqWuIOMRYE-9" style="edgeStyle=orthogonalEdgeStyle;rounded=0;orthogonalLoop=1;jettySize=auto;html=1;exitX=0.5;exitY=1;exitDx=0;exitDy=0;entryX=0.5;entryY=0;entryDx=0;entryDy=0;" edge="1" parent="1" source="RbbH7CZPH8PqWuIOMRYE-10" target="RbbH7CZPH8PqWuIOMRYE-12">
          <mxGeometry relative="1" as="geometry" />
        </mxCell>
        <mxCell id="RbbH7CZPH8PqWuIOMRYE-10" value="Allontanamento dalla religione e dalle forme di controllo (Inquisizione), angoscia e paura della morte" style="rounded=1;whiteSpace=wrap;html=1;" vertex="1" parent="1">
          <mxGeometry x="480" y="90" width="160" height="80" as="geometry" />
        </mxCell>
        <mxCell id="RbbH7CZPH8PqWuIOMRYE-12" value="Creazione di un&#39;opera creata &quot;per piacere/godere&quot;, sapendo che &quot; l&#39;esistenza è fugace &quot; e l&#39;artista è &quot;creatore del proprio spettacolo&quot;" style="rounded=1;whiteSpace=wrap;html=1;" vertex="1" parent="1">
          <mxGeometry x="470" y="200" width="170" height="90" as="geometry" />
        </mxCell>
        <mxCell id="RbbH7CZPH8PqWuIOMRYE-13" value="" style="endArrow=classic;html=1;rounded=0;exitX=0.5;exitY=1;exitDx=0;exitDy=0;" edge="1" parent="1" source="RbbH7CZPH8PqWuIOMRYE-12">
          <mxGeometry width="50" height="50" relative="1" as="geometry">
            <mxPoint x="590" y="310" as="sourcePoint" />
            <mxPoint x="555" y="330" as="targetPoint" />
          </mxGeometry>
        </mxCell>
        <mxCell id="RbbH7CZPH8PqWuIOMRYE-14" value="" style="endArrow=classic;html=1;rounded=0;exitX=1;exitY=0.5;exitDx=0;exitDy=0;entryX=0;entryY=0.5;entryDx=0;entryDy=0;" edge="1" parent="1" source="RbbH7CZPH8PqWuIOMRYE-4" target="RbbH7CZPH8PqWuIOMRYE-10">
          <mxGeometry width="50" height="50" relative="1" as="geometry">
            <mxPoint x="315" y="290" as="sourcePoint" />
            <mxPoint x="315" y="340" as="targetPoint" />
          </mxGeometry>
        </mxCell>
        <mxCell id="RbbH7CZPH8PqWuIOMRYE-15" value="Sorprendere lo spettatore con le opere del &quot;teatro del mondo&quot;" style="rounded=1;whiteSpace=wrap;html=1;" vertex="1" parent="1">
          <mxGeometry x="470" y="330" width="170" height="90" as="geometry" />
        </mxCell>
        <mxCell id="6SHdeUlrfEWlkziNjItE-1" value="" style="endArrow=none;dashed=1;html=1;dashPattern=1 3;strokeWidth=2;rounded=0;" edge="1" parent="1">
          <mxGeometry width="50" height="50" relative="1" as="geometry">
            <mxPoint y="440" as="sourcePoint" />
            <mxPoint x="830" y="440" as="targetPoint" />
          </mxGeometry>
        </mxCell>
        <mxCell id="6SHdeUlrfEWlkziNjItE-4" style="edgeStyle=orthogonalEdgeStyle;rounded=0;orthogonalLoop=1;jettySize=auto;html=1;exitX=0.5;exitY=1;exitDx=0;exitDy=0;entryX=0.5;entryY=0;entryDx=0;entryDy=0;" edge="1" parent="1" source="6SHdeUlrfEWlkziNjItE-5" target="6SHdeUlrfEWlkziNjItE-7">
          <mxGeometry relative="1" as="geometry" />
        </mxCell>
        <mxCell id="6SHdeUlrfEWlkziNjItE-5" value="Cambiamento radicale&lt;br&gt;Nuovi ideali in cui credere&lt;br&gt;Nuovi ideali in cui credere" style="rounded=1;whiteSpace=wrap;html=1;" vertex="1" parent="1">
          <mxGeometry x="335" y="500" width="150" height="70" as="geometry" />
        </mxCell>
        <mxCell id="6SHdeUlrfEWlkziNjItE-6" value="Gian Lorenzo Bernini: L&#39;arte deve &quot;impressionare&quot; lo spettatore, diventando &quot;ricchezza e decorazione&quot;" style="rounded=1;whiteSpace=wrap;html=1;" vertex="1" parent="1">
          <mxGeometry x="335" y="760" width="150" height="80" as="geometry" />
        </mxCell>
        <mxCell id="6SHdeUlrfEWlkziNjItE-7" value="Osservare &quot;oltre&quot;:&lt;br&gt;&lt;br&gt;- Galileo Galilei: Metodo scientifico sperimentale per &quot;osservare i fenomeni&quot; seguendo passi precisi" style="rounded=1;whiteSpace=wrap;html=1;" vertex="1" parent="1">
          <mxGeometry x="320" y="620" width="180" height="100" as="geometry" />
        </mxCell>
        <mxCell id="6SHdeUlrfEWlkziNjItE-8" value="" style="endArrow=classic;html=1;rounded=0;exitX=0.5;exitY=1;exitDx=0;exitDy=0;" edge="1" parent="1" source="6SHdeUlrfEWlkziNjItE-7" target="6SHdeUlrfEWlkziNjItE-6">
          <mxGeometry width="50" height="50" relative="1" as="geometry">
            <mxPoint x="430" y="730" as="sourcePoint" />
            <mxPoint x="480" y="680" as="targetPoint" />
          </mxGeometry>
        </mxCell>
        <mxCell id="oURSgtiGI0tA97He1EqO-1" value="L&#39;arte come mezzo per &quot;vivere la vita terrena&quot; e allontanare la paura della morte&quot;" style="rounded=1;whiteSpace=wrap;html=1;" vertex="1" parent="1">
          <mxGeometry x="335" y="900" width="150" height="80" as="geometry" />
        </mxCell>
        <mxCell id="oURSgtiGI0tA97He1EqO-2" value="" style="endArrow=classic;html=1;rounded=0;exitX=0.5;exitY=1;exitDx=0;exitDy=0;entryX=0.5;entryY=0;entryDx=0;entryDy=0;" edge="1" parent="1" target="oURSgtiGI0tA97He1EqO-1">
          <mxGeometry width="50" height="50" relative="1" as="geometry">
            <mxPoint x="409.68" y="840" as="sourcePoint" />
            <mxPoint x="409.68" y="880" as="targetPoint" />
          </mxGeometry>
        </mxCell>
      </root>
    </mxGraphModel>
  </diagram>
</mxfile>
